<svg xmlns="http://www.w3.org/2000/svg" viewBox="0 0 453.89 113.4"><title>logo</title><path d="M451.42,74.5a.36.36,0,0,1-.36.36h-1.71v4.83a.38.38,0,0,1-.39.37.37.37,0,0,1-.38-.37V74.86h-1.72a.36.36,0,0,1,0-.72h4.2A.36.36,0,0,1,451.42,74.5Z" transform="translate(-5.09 -4.32)" style="fill:#3f738d"/><path d="M459,74.66v5a.37.37,0,0,1-.38.37.38.38,0,0,1-.39-.37V74.9l-2,4.81a.57.57,0,0,1-.54.35.59.59,0,0,1-.54-.35l-1.94-4.81v4.79a.38.38,0,0,1-.39.37.37.37,0,0,1-.38-.37v-5a.55.55,0,0,1,.55-.56h.28a.57.57,0,0,1,.51.35l1.91,4.77,1.92-4.77a.56.56,0,0,1,.51-.35h.28A.56.56,0,0,1,459,74.66Z" transform="translate(-5.09 -4.32)" style="fill:#3f738d"/><path d="M172.48,111.09a1,1,0,0,1-1.07,1.06,1.07,1.07,0,0,1-1-.66l-1.54-3.7h-8.06l-1.54,3.7a1.07,1.07,0,0,1-1,.66,1,1,0,0,1-1.06-1.06,1.35,1.35,0,0,1,.12-.48l6-14.26a1.48,1.48,0,0,1,1.37-1h.24a1.5,1.5,0,0,1,1.38,1l6,14.26A1.35,1.35,0,0,1,172.48,111.09ZM168,105.83l-3.2-7.71-3.2,7.71Z" transform="translate(-5.09 -4.32)" style="fill:#3f738d"/><path d="M190.62,111a1.08,1.08,0,0,1-1.09,1.07h-8.41a1.49,1.49,0,0,1-1.49-1.5V96.47a1.07,1.07,0,0,1,1.06-1.09,1.09,1.09,0,0,1,1.09,1.09v13.41h7.75A1.1,1.1,0,0,1,190.62,111Z" transform="translate(-5.09 -4.32)" style="fill:#3f738d"/><path d="M203.27,110.35a1.08,1.08,0,0,1-.61.88,7.44,7.44,0,0,1-4.15,1c-3.86,0-6.14-2.3-6.14-6.28,0-3.2,1.73-6.28,5.67-6.28,3.65,0,5.64,2.82,5.64,6a1,1,0,0,1-1.09,1.06h-8c.24,2.13,1.59,3.51,4.15,3.51a6.47,6.47,0,0,0,3.2-.74.88.88,0,0,1,.43-.09A.93.93,0,0,1,203.27,110.35ZM194.55,105h7a3.5,3.5,0,0,0-7,0Z" transform="translate(-5.09 -4.32)" style="fill:#3f738d"/><path d="M216.33,104.38v6.71a1.08,1.08,0,0,1-1.09,1.06,1.06,1.06,0,0,1-1.07-1.06v-.62a5.91,5.91,0,0,1-4.45,1.8,3.59,3.59,0,0,1-3.87-3.55c0-2.23,1.76-3.84,5.45-3.84h2.87v-.19c0-2.11-1-2.94-3.17-2.94a9.66,9.66,0,0,0-3.16.57,1.57,1.57,0,0,1-.3.05.88.88,0,0,1-.88-.9.92.92,0,0,1,.62-.9,10,10,0,0,1,4.09-.86C214.83,99.71,216.33,102.06,216.33,104.38Zm-2.16,4.22v-2h-2.58c-2.23,0-3.58.52-3.58,1.87,0,1,.59,1.9,2.51,1.9A5.11,5.11,0,0,0,214.17,108.6Z" transform="translate(-5.09 -4.32)" style="fill:#3f738d"/><path d="M227.25,100.78a1,1,0,0,1-1.09,1H226a4.42,4.42,0,0,0-3.67,2.08v7.21a1.08,1.08,0,0,1-1.09,1.06,1.06,1.06,0,0,1-1.07-1.06V100.92a1.08,1.08,0,0,1,1.07-1.09,1.11,1.11,0,0,1,1.09,1.09v1a4.79,4.79,0,0,1,3.72-2.23h.12A1,1,0,0,1,227.25,100.78Z" transform="translate(-5.09 -4.32)" style="fill:#3f738d"/><path d="M240.42,104.36v6.73a1.08,1.08,0,0,1-1.09,1.06,1.06,1.06,0,0,1-1.07-1.06V104.6c0-1.81-.75-2.9-2.6-2.9a5.07,5.07,0,0,0-3.89,2.28v7.11a1.08,1.08,0,0,1-1.09,1.06,1.05,1.05,0,0,1-1.06-1.06V100.92a1.07,1.07,0,0,1,1.06-1.09,1.09,1.09,0,0,1,1.09,1.09v1a5.74,5.74,0,0,1,4.41-2.18C238.88,99.71,240.42,101.82,240.42,104.36Z" transform="translate(-5.09 -4.32)" style="fill:#3f738d"/><path d="M246.75,96.28a1.22,1.22,0,0,1-1.21,1.21h-.15a1.21,1.21,0,0,1-1.2-1.21v-.1a1.21,1.21,0,0,1,1.2-1.21h.15a1.22,1.22,0,0,1,1.21,1.21Zm-.22,4.64v10.17a1.08,1.08,0,0,1-2.15,0V100.92a1.08,1.08,0,1,1,2.15,0Z" transform="translate(-5.09 -4.32)" style="fill:#3f738d"/><path d="M261.41,104.36v6.73a1.08,1.08,0,0,1-1.09,1.06,1.05,1.05,0,0,1-1.06-1.06V104.6c0-1.81-.76-2.9-2.61-2.9a5.07,5.07,0,0,0-3.89,2.28v7.11a1.08,1.08,0,0,1-1.09,1.06,1.05,1.05,0,0,1-1.06-1.06V100.92a1.07,1.07,0,0,1,1.06-1.09,1.09,1.09,0,0,1,1.09,1.09v1a5.74,5.74,0,0,1,4.41-2.18C259.87,99.71,261.41,101.82,261.41,104.36Z" transform="translate(-5.09 -4.32)" style="fill:#3f738d"/><path d="M276.48,100.92v10.59c0,4-2,6.21-5.57,6.21a11.22,11.22,0,0,1-5.07-1.23.87.87,0,0,1-.43-.83,1,1,0,0,1,.95-1,1.09,1.09,0,0,1,.43.1,8.75,8.75,0,0,0,3.91.9c2.41,0,3.62-1.31,3.62-3.87v-1.59a5.32,5.32,0,0,1-4.05,1.81,6.18,6.18,0,0,1,0-12.33,5.34,5.34,0,0,1,4.05,1.8v-.59a1.09,1.09,0,0,1,1.07-1.09A1.11,1.11,0,0,1,276.48,100.92Zm-2.16,2.51a4.86,4.86,0,0,0-3.6-1.75,3.8,3.8,0,0,0-4,4.19c0,2.85,1.78,4.2,4,4.2a4.87,4.87,0,0,0,3.6-1.76Z" transform="translate(-5.09 -4.32)" style="fill:#3f738d"/><path d="M297.68,110a.9.9,0,0,1-.52.85,10.32,10.32,0,0,1-5.4,1.47c-4.72,0-8.29-3.22-8.29-8.5s3.57-8.51,8.29-8.51a10.32,10.32,0,0,1,5.4,1.47,1,1,0,0,1-.42,1.8,1,1,0,0,1-.43-.1A8.62,8.62,0,0,0,292,97.32c-4.19,0-6.35,2.8-6.35,6.45s2.16,6.44,6.35,6.44a8.62,8.62,0,0,0,4.34-1.11,1,1,0,0,1,.43-.1A.9.9,0,0,1,297.68,110Z" transform="translate(-5.09 -4.32)" style="fill:#3f738d"/><path d="M311.8,106c0,3.75-2.41,6.28-6.06,6.28s-6.07-2.53-6.07-6.28,2.4-6.28,6.07-6.28S311.8,102.25,311.8,106Zm-2.15,0c0-3.13-2.11-4.29-3.91-4.29s-3.91,1.16-3.91,4.29,2.08,4.34,3.91,4.34S309.65,109.12,309.65,106Z" transform="translate(-5.09 -4.32)" style="fill:#3f738d"/><path d="M333.18,104.26v6.83a1.08,1.08,0,0,1-1.09,1.06,1.06,1.06,0,0,1-1.07-1.06v-6.4c0-2-.62-3-2.42-3a3.93,3.93,0,0,0-3.41,2.28v7.11a1.08,1.08,0,0,1-1.09,1.06,1.06,1.06,0,0,1-1.07-1.06v-6.4c0-2-.61-3-2.41-3A3.94,3.94,0,0,0,317.2,104v7.11a1.07,1.07,0,0,1-1.09,1.06,1.05,1.05,0,0,1-1.06-1.06V100.92a1.08,1.08,0,0,1,1.06-1.09,1.1,1.1,0,0,1,1.09,1.09v1a4.68,4.68,0,0,1,4-2.18,3.86,3.86,0,0,1,3.63,2.44,4.8,4.8,0,0,1,4.36-2.44C332,99.71,333.18,102.15,333.18,104.26Z" transform="translate(-5.09 -4.32)" style="fill:#3f738d"/><path d="M339.21,110.47v6a1.08,1.08,0,1,1-2.15,0V100.9a1.08,1.08,0,0,1,2.15,0v.61a5.44,5.44,0,0,1,4.06-1.8c2.86,0,5.73,2.25,5.73,6.28s-2.87,6.28-5.73,6.28A5.4,5.4,0,0,1,339.21,110.47Zm0-7v5a5.07,5.07,0,0,0,3.75,1.78c2.25,0,3.88-1.47,3.88-4.27s-1.63-4.26-3.88-4.26A5.1,5.1,0,0,0,339.21,103.5Z" transform="translate(-5.09 -4.32)" style="fill:#3f738d"/><path d="M361.75,104.38v6.71a1.08,1.08,0,0,1-1.09,1.06,1.06,1.06,0,0,1-1.07-1.06v-.62a5.92,5.92,0,0,1-4.46,1.8,3.59,3.59,0,0,1-3.86-3.55c0-2.23,1.76-3.84,5.45-3.84h2.87v-.19c0-2.11-1-2.94-3.18-2.94a9.64,9.64,0,0,0-3.15.57,1.54,1.54,0,0,1-.31.05.88.88,0,0,1-.87-.9.92.92,0,0,1,.61-.9,10.05,10.05,0,0,1,4.1-.86C360.25,99.71,361.75,102.06,361.75,104.38Zm-2.16,4.22v-2H357c-2.23,0-3.58.52-3.58,1.87,0,1,.59,1.9,2.51,1.9A5.13,5.13,0,0,0,359.59,108.6Z" transform="translate(-5.09 -4.32)" style="fill:#3f738d"/><path d="M376.43,104.36v6.73a1.07,1.07,0,0,1-1.09,1.06,1.05,1.05,0,0,1-1.06-1.06V104.6c0-1.81-.76-2.9-2.61-2.9a5.08,5.08,0,0,0-3.89,2.28v7.11a1.07,1.07,0,0,1-1.09,1.06,1.05,1.05,0,0,1-1.06-1.06V100.92a1.07,1.07,0,0,1,1.06-1.09,1.09,1.09,0,0,1,1.09,1.09v1a5.74,5.74,0,0,1,4.41-2.18C374.89,99.71,376.43,101.82,376.43,104.36Z" transform="translate(-5.09 -4.32)" style="fill:#3f738d"/><path d="M390.27,101.32l-6.47,15.55a1.06,1.06,0,0,1-1,.73,1,1,0,0,1-.95-1.42l1.54-4-4.46-10.85a1.43,1.43,0,0,1-.09-.45,1.08,1.08,0,0,1,1.06-1.09,1.11,1.11,0,0,1,1,.67l3.65,9,3.72-9a1.06,1.06,0,0,1,2.06.38A1,1,0,0,1,390.27,101.32Z" transform="translate(-5.09 -4.32)" style="fill:#3f738d"/><path d="M32.72,111.78a4.6,4.6,0,0,1-4.61-4.6A18.44,18.44,0,0,0,9.69,88.76a4.6,4.6,0,0,1,0-9.2,27.65,27.65,0,0,1,27.63,27.62A4.6,4.6,0,0,1,32.72,111.78Z" transform="translate(-5.09 -4.32)" style="fill:#00c96e"/><path d="M51.9,111.78a4.6,4.6,0,0,1-4.6-4.6A37.65,37.65,0,0,0,9.69,69.58a4.61,4.61,0,0,1,0-9.21A46.86,46.86,0,0,1,56.5,107.18,4.6,4.6,0,0,1,51.9,111.78Z" transform="translate(-5.09 -4.32)" style="fill:#00c96e"/><path d="M71.09,111.78a4.61,4.61,0,0,1-4.61-4.6A56.84,56.84,0,0,0,9.69,50.4a4.61,4.61,0,0,1,0-9.22,66.08,66.08,0,0,1,66,66A4.6,4.6,0,0,1,71.09,111.78Z" transform="translate(-5.09 -4.32)" style="fill:#00c96e"/><path d="M109.45,111.78a4.6,4.6,0,0,1-4.61-4.6,27.66,27.66,0,0,1,27.62-27.62,4.6,4.6,0,1,1,0,9.2,18.44,18.44,0,0,0-18.41,18.42A4.6,4.6,0,0,1,109.45,111.78Z" transform="translate(-5.09 -4.32)" style="fill:#27aae1"/><path d="M90.26,111.78a4.6,4.6,0,0,1-4.6-4.6,46.86,46.86,0,0,1,46.8-46.81,4.61,4.61,0,1,1,0,9.21,37.64,37.64,0,0,0-37.59,37.6A4.6,4.6,0,0,1,90.26,111.78Z" transform="translate(-5.09 -4.32)" style="fill:#27aae1"/><path d="M71.08,111.78a4.61,4.61,0,0,1-4.61-4.6,66.08,66.08,0,0,1,66-66,4.61,4.61,0,0,1,0,9.22,56.85,56.85,0,0,0-56.78,56.78A4.6,4.6,0,0,1,71.08,111.78Z" transform="translate(-5.09 -4.32)" style="fill:#27aae1"/><path d="M92.06,25.31c0,11.58-9.39,25.22-21,25.22s-21-13.64-21-25.22a21,21,0,1,1,42,0Z" transform="translate(-5.09 -4.32)" style="fill:#1383b3"/><path d="M185.14,77.17a2.71,2.71,0,0,1-2.73,2.67H161.35a3.72,3.72,0,0,1-3.74-3.74V42.34a2.71,2.71,0,0,1,2.67-2.73A2.77,2.77,0,0,1,163,42.34v32.1h19.4A2.76,2.76,0,0,1,185.14,77.17Z" transform="translate(-5.09 -4.32)" style="fill:#3f738d"/><path d="M194.64,42.78a3,3,0,0,1-3,3h-.36a3,3,0,0,1-3-3v-.24a3,3,0,0,1,3-3h.36a3,3,0,0,1,3,3ZM194.11,52V77.47a2.71,2.71,0,0,1-5.41,0V52a2.71,2.71,0,1,1,5.41,0Z" transform="translate(-5.09 -4.32)" style="fill:#3f738d"/><path d="M229,52V76c0,10-5,15.55-13.94,15.55-4.81,0-7.38-.81-9.54-1.89a2.34,2.34,0,0,1-1.19-2.18,2.31,2.31,0,0,1,2.5-2.33,3,3,0,0,1,1.06.24,16.93,16.93,0,0,0,6.95,1.18c6.05.06,8.77-3.38,8.77-9.79V75.33a13.4,13.4,0,0,1-10.16,4.51c-6.58,0-14.35-4.92-14.35-15.43S206.82,49,213.4,49a13.38,13.38,0,0,1,10.16,4.52V52a2.7,2.7,0,0,1,2.67-2.73A2.75,2.75,0,0,1,229,52Zm-5.39,6.29c-2.2-2.25-4.93-4.39-9-4.39-5.64,0-10.08,3.38-10.08,10.5s4.44,10.51,10.08,10.51c4.1,0,6.83-2.14,9-4.4Z" transform="translate(-5.09 -4.32)" style="fill:#3f738d"/><path d="M261.54,60.61V77.47a2.72,2.72,0,0,1-2.74,2.67,2.66,2.66,0,0,1-2.67-2.67V61.21c0-4.51-1.9-7.24-6.52-7.24-4.27,0-7.36,2.73-9.73,5.69V77.47a2.71,2.71,0,0,1-2.73,2.67,2.67,2.67,0,0,1-2.68-2.67V42.24a2.68,2.68,0,0,1,2.68-2.73,2.73,2.73,0,0,1,2.73,2.73v12.2c2.49-2.72,5.75-5.46,11-5.46C257.68,49,261.54,54.26,261.54,60.61Z" transform="translate(-5.09 -4.32)" style="fill:#3f738d"/><path d="M282.3,75.16c-1,0-1.66.53-3.56.53-1.48,0-3.85-.06-3.85-3.56V54.2h6.7a2.31,2.31,0,1,0,0-4.62h-6.7V47.5h0V44.74a2.69,2.69,0,0,0-5.38,0V47.5h0l0,2.09h-2.84a2.31,2.31,0,0,0,0,4.62h2.8V72.6c0,7.36,5.87,7.83,8.66,7.83a11.57,11.57,0,0,0,4.92-1.06,2.22,2.22,0,0,0,1.38-2.08A2.17,2.17,0,0,0,282.3,75.16Z" transform="translate(-5.09 -4.32)" style="fill:#3f738d"/><path d="M310.25,71.65c0,4.81-3.85,8.78-11.45,8.78A21.71,21.71,0,0,1,288,77.76a2.38,2.38,0,0,1,1.3-4.33,2.46,2.46,0,0,1,1.07.24,18.72,18.72,0,0,0,8.07,1.78c4.57,0,6.59-1.54,6.59-4.21,0-5.11-17.8-2.08-17.8-12.88,0-5.34,3.85-9.38,11.57-9.38a25,25,0,0,1,8.6,1.49,2.41,2.41,0,0,1,1.73,2.25,2.38,2.38,0,0,1-2.38,2.37A3.57,3.57,0,0,1,306,55a22.16,22.16,0,0,0-6.75-1.07c-4.4,0-6.83,1.78-6.83,4.15C292.39,64.24,310.25,60,310.25,71.65Z" transform="translate(-5.09 -4.32)" style="fill:#3f738d"/><path d="M320.17,75.92V87.77a2.7,2.7,0,1,1-5.4,0V52a2.7,2.7,0,0,1,5.4,0V53.5A13.55,13.55,0,0,1,330.32,49c7.19,0,14.36,5.64,14.36,15.73s-7.17,15.72-14.36,15.72A13.54,13.54,0,0,1,320.17,75.92Zm0-17.44V70.94a12.67,12.67,0,0,0,9.38,4.45c5.64,0,9.74-3.68,9.74-10.68S335.19,54,329.55,54A12.67,12.67,0,0,0,320.17,58.48Z" transform="translate(-5.09 -4.32)" style="fill:#3f738d"/><path d="M375.4,75.63a2.73,2.73,0,0,1-1.54,2.2,18.6,18.6,0,0,1-10.39,2.6c-9.67,0-15.37-5.75-15.37-15.72,0-8,4.33-15.73,14.18-15.73,9.14,0,14.13,7.07,14.13,15a2.61,2.61,0,0,1-2.73,2.68H353.56c.59,5.34,4,8.78,10.39,8.78a16.06,16.06,0,0,0,8-1.84,2.18,2.18,0,0,1,1.07-.24A2.33,2.33,0,0,1,375.4,75.63ZM353.56,62.22h17.51c-.36-6.17-5-8.67-8.79-8.67S353.91,56.05,353.56,62.22Z" transform="translate(-5.09 -4.32)" style="fill:#3f738d"/><path d="M407,75.63a2.69,2.69,0,0,1-1.54,2.2,18.58,18.58,0,0,1-10.39,2.6c-9.67,0-15.37-5.75-15.37-15.72,0-8,4.34-15.73,14.19-15.73C403,49,408,56.05,408,63.93a2.61,2.61,0,0,1-2.72,2.68H385.15c.59,5.34,4,8.78,10.38,8.78a16.1,16.1,0,0,0,8-1.84,2.18,2.18,0,0,1,1.07-.24A2.33,2.33,0,0,1,407,75.63ZM385.15,62.22h17.5c-.35-6.17-5-8.67-8.78-8.67S385.51,56.05,385.15,62.22Z" transform="translate(-5.09 -4.32)" style="fill:#3f738d"/><path d="M435.75,53.5V42.06a2.7,2.7,0,1,1,5.4,0V77.47a2.7,2.7,0,0,1-5.4,0V75.92a13.51,13.51,0,0,1-10.15,4.51c-7.18,0-14.36-5.63-14.36-15.72S418.42,49,425.6,49A13.52,13.52,0,0,1,435.75,53.5Zm0,17.44V58.48A12.63,12.63,0,0,0,426.38,54c-5.64,0-9.74,3.68-9.74,10.68s4.1,10.68,9.74,10.68A12.63,12.63,0,0,0,435.75,70.94Z" transform="translate(-5.09 -4.32)" style="fill:#3f738d"/></svg>